<mxfile host="app.diagrams.net" agent="Mozilla/5.0 (Macintosh; Intel Mac OS X 10_15_7) AppleWebKit/537.36 (KHTML, like Gecko) Chrome/135.0.0.0 Safari/537.36" version="27.1.1">
  <diagram name="Page-1" id="AxITI7FQkxwp4ELhFs_X">
    <mxGraphModel dx="1867" dy="771" grid="0" gridSize="10" guides="1" tooltips="1" connect="1" arrows="1" fold="1" page="0" pageScale="1" pageWidth="850" pageHeight="1100" background="none" math="0" shadow="0">
      <root>
        <mxCell id="0" />
        <mxCell id="1" parent="0" />
        <mxCell id="0AIdGJ6Hk66zpanxrHf8-4" value="" style="group" parent="1" connectable="0" vertex="1">
          <mxGeometry x="-656" y="531.62" width="164" height="105" as="geometry" />
        </mxCell>
        <mxCell id="0AIdGJ6Hk66zpanxrHf8-5" value="&lt;h1&gt;Java&lt;/h1&gt;" style="ellipse;whiteSpace=wrap;html=1;fillColor=#cdeb8b;strokeColor=#333333;" parent="0AIdGJ6Hk66zpanxrHf8-4" vertex="1">
          <mxGeometry x="12.947368421052632" y="8.289473684210526" width="138.10526315789474" height="88.42105263157893" as="geometry" />
        </mxCell>
        <mxCell id="0AIdGJ6Hk66zpanxrHf8-6" value="" style="group" parent="1" vertex="1" connectable="0">
          <mxGeometry x="-401" y="213" width="97" height="52" as="geometry" />
        </mxCell>
        <mxCell id="0AIdGJ6Hk66zpanxrHf8-8" value="Day 1 - intro" style="rounded=1;whiteSpace=wrap;html=1;fillColor=#ffcc99;strokeColor=#36393d;" parent="0AIdGJ6Hk66zpanxrHf8-6" vertex="1">
          <mxGeometry x="5.484073608750282" y="5.5443934426229475" width="86.02468405882789" height="40.91803278688525" as="geometry" />
        </mxCell>
        <mxCell id="0AIdGJ6Hk66zpanxrHf8-34" style="edgeStyle=orthogonalEdgeStyle;shape=connector;curved=1;rounded=1;orthogonalLoop=1;jettySize=auto;html=1;labelBackgroundColor=default;strokeColor=#333333;align=center;verticalAlign=middle;fontFamily=Helvetica;fontSize=11;fontColor=default;endArrow=oval;endFill=1;strokeWidth=1;endSize=6;exitX=0;exitY=0.5;exitDx=0;exitDy=0;entryX=1;entryY=0.5;entryDx=0;entryDy=0;" parent="1" source="0AIdGJ6Hk66zpanxrHf8-8" target="0AIdGJ6Hk66zpanxrHf8-5" edge="1">
          <mxGeometry relative="1" as="geometry">
            <mxPoint x="-451" y="449" as="targetPoint" />
            <mxPoint x="-293" y="417.125" as="sourcePoint" />
          </mxGeometry>
        </mxCell>
        <mxCell id="ibb6AX8J0KCUHzm8aaDm-8" style="edgeStyle=orthogonalEdgeStyle;shape=connector;curved=1;rounded=1;orthogonalLoop=1;jettySize=auto;html=1;labelBackgroundColor=default;strokeColor=#333333;align=center;verticalAlign=middle;fontFamily=Helvetica;fontSize=11;fontColor=default;endArrow=oval;endFill=1;strokeWidth=1;endSize=6;exitX=0;exitY=0.5;exitDx=0;exitDy=0;entryX=1;entryY=0.5;entryDx=0;entryDy=0;" edge="1" parent="1" source="ibb6AX8J0KCUHzm8aaDm-16" target="0AIdGJ6Hk66zpanxrHf8-8">
          <mxGeometry relative="1" as="geometry">
            <mxPoint x="-386" y="437" as="targetPoint" />
            <mxPoint x="-137" y="239" as="sourcePoint" />
          </mxGeometry>
        </mxCell>
        <mxCell id="ibb6AX8J0KCUHzm8aaDm-9" style="edgeStyle=orthogonalEdgeStyle;shape=connector;curved=1;rounded=1;orthogonalLoop=1;jettySize=auto;html=1;labelBackgroundColor=default;strokeColor=#333333;align=center;verticalAlign=middle;fontFamily=Helvetica;fontSize=11;fontColor=default;endArrow=oval;endFill=1;strokeWidth=1;endSize=6;exitX=0;exitY=0.5;exitDx=0;exitDy=0;entryX=1;entryY=0.5;entryDx=0;entryDy=0;" edge="1" parent="1">
          <mxGeometry relative="1" as="geometry">
            <mxPoint x="-547" y="177" as="targetPoint" />
            <mxPoint x="-479" y="66" as="sourcePoint" />
          </mxGeometry>
        </mxCell>
        <mxCell id="ibb6AX8J0KCUHzm8aaDm-16" value="&lt;b style=&quot;&quot;&gt;javac -&amp;gt; java&lt;/b&gt;&lt;br style=&quot;&quot;&gt;&lt;span style=&quot;&quot;&gt;$ javac helloWorld.java&lt;/span&gt;&lt;div&gt;&lt;span style=&quot;&quot;&gt;$ java helloWorld&lt;/span&gt;&lt;br style=&quot;&quot;&gt;&lt;br style=&quot;&quot;&gt;&lt;b style=&quot;&quot;&gt;import module&lt;/b&gt;&lt;br style=&quot;&quot;&gt;&lt;span style=&quot;&quot;&gt;File -&amp;gt; New -&amp;gt; Module fro Existing Sources&lt;/span&gt;&lt;br style=&quot;&quot;&gt;&lt;span style=&quot;&quot;&gt;Setup JDK&lt;/span&gt;&lt;br style=&quot;&quot;&gt;&lt;br style=&quot;&quot;&gt;&lt;b style=&quot;&quot;&gt;Code structure&lt;/b&gt;&lt;br style=&quot;&quot;&gt;&lt;span style=&quot;&quot;&gt;Project -&amp;gt; Module -&amp;gt; Packages -&amp;gt; Class&lt;/span&gt;&lt;/div&gt;" style="rounded=0;html=1;labelBorderColor=none;labelBackgroundColor=default;textShadow=1;spacing=0;strokeColor=none;align=left;" vertex="1" parent="1">
          <mxGeometry x="-159" y="159" width="236" height="160" as="geometry" />
        </mxCell>
        <mxCell id="ibb6AX8J0KCUHzm8aaDm-17" value="" style="group" vertex="1" connectable="0" parent="1">
          <mxGeometry x="-401" y="398" width="97" height="52" as="geometry" />
        </mxCell>
        <mxCell id="ibb6AX8J0KCUHzm8aaDm-18" value="Day 2 - basic" style="rounded=1;whiteSpace=wrap;html=1;fillColor=#CDA2BE;strokeColor=#36393d;" vertex="1" parent="ibb6AX8J0KCUHzm8aaDm-17">
          <mxGeometry x="5.484073608750282" y="5.5443934426229475" width="86.02468405882789" height="40.91803278688525" as="geometry" />
        </mxCell>
        <mxCell id="ibb6AX8J0KCUHzm8aaDm-20" style="edgeStyle=orthogonalEdgeStyle;shape=connector;curved=1;rounded=1;orthogonalLoop=1;jettySize=auto;html=1;labelBackgroundColor=default;strokeColor=#333333;align=center;verticalAlign=middle;fontFamily=Helvetica;fontSize=11;fontColor=default;endArrow=oval;endFill=1;strokeWidth=1;endSize=6;exitX=0;exitY=0.5;exitDx=0;exitDy=0;entryX=1;entryY=0.5;entryDx=0;entryDy=0;" edge="1" parent="1" source="ibb6AX8J0KCUHzm8aaDm-18" target="0AIdGJ6Hk66zpanxrHf8-5">
          <mxGeometry relative="1" as="geometry">
            <mxPoint x="-466" y="211" as="targetPoint" />
            <mxPoint x="-398" y="100" as="sourcePoint" />
          </mxGeometry>
        </mxCell>
        <mxCell id="ibb6AX8J0KCUHzm8aaDm-21" value="&lt;b&gt;Method&lt;/b&gt;&lt;div&gt;public status &amp;lt;returnType&amp;gt; &amp;lt;methodName&amp;gt; (param){&lt;br&gt;&amp;nbsp; &amp;nbsp; &amp;nbsp;code...&lt;/div&gt;&lt;div&gt;&amp;nbsp; &amp;nbsp; &amp;nbsp;return value&lt;/div&gt;&lt;div&gt;}&lt;/div&gt;&lt;div&gt;&lt;br&gt;&lt;/div&gt;&lt;div&gt;returnType = void, then no need return value&lt;/div&gt;&lt;div&gt;use &#39;return&#39; to exit the void method&lt;/div&gt;&lt;div&gt;&lt;br&gt;&lt;/div&gt;&lt;div&gt;&lt;b&gt;Method overloading&lt;/b&gt;&lt;/div&gt;&lt;div&gt;only care &amp;lt;methodName&amp;gt; and (param)&lt;/div&gt;" style="rounded=0;html=1;labelBorderColor=none;labelBackgroundColor=default;textShadow=1;spacing=0;strokeColor=none;align=left;" vertex="1" parent="1">
          <mxGeometry x="-159" y="344" width="308" height="160" as="geometry" />
        </mxCell>
        <mxCell id="ibb6AX8J0KCUHzm8aaDm-22" style="edgeStyle=orthogonalEdgeStyle;shape=connector;curved=1;rounded=1;orthogonalLoop=1;jettySize=auto;html=1;labelBackgroundColor=default;strokeColor=#333333;align=center;verticalAlign=middle;fontFamily=Helvetica;fontSize=11;fontColor=default;endArrow=oval;endFill=1;strokeWidth=1;endSize=6;exitX=0;exitY=0.5;exitDx=0;exitDy=0;entryX=1;entryY=0.5;entryDx=0;entryDy=0;" edge="1" parent="1" source="ibb6AX8J0KCUHzm8aaDm-21" target="ibb6AX8J0KCUHzm8aaDm-18">
          <mxGeometry relative="1" as="geometry">
            <mxPoint x="-511" y="224" as="targetPoint" />
            <mxPoint x="-443" y="113" as="sourcePoint" />
          </mxGeometry>
        </mxCell>
        <mxCell id="ibb6AX8J0KCUHzm8aaDm-23" value="&lt;b&gt;Type convert (byte -&amp;gt; short /&amp;nbsp;&lt;/b&gt;&lt;b&gt;char&lt;/b&gt;&lt;b&gt;&amp;nbsp;-&amp;gt; int&amp;nbsp; -&amp;gt; long -&amp;gt; float -&amp;gt; double)&lt;/b&gt;&lt;div&gt;double i = 3.99;&lt;/div&gt;&lt;div&gt;int k = (int) i;&lt;/div&gt;&lt;div&gt;&lt;br&gt;&lt;/div&gt;&lt;div&gt;byte, char, short will be treated as int when calculating&lt;/div&gt;&lt;div&gt;&lt;br&gt;&lt;/div&gt;&lt;div&gt;&lt;b&gt;Operator&lt;/b&gt;&lt;/div&gt;&lt;div&gt;1. &amp;amp;&amp;amp; - &amp;gt; if left is false, right side is not going to execute&lt;/div&gt;&lt;div&gt;```&lt;/div&gt;&lt;div&gt;int a = 10; int b = 100&lt;/div&gt;&lt;div&gt;return (a &amp;gt; 100 &amp;amp;&amp;amp; ++b &amp;lt; 1000)&lt;/div&gt;&lt;div&gt;return false and b is still 100 since not going to execute ++b&lt;/div&gt;&lt;div&gt;```&lt;/div&gt;&lt;div&gt;&lt;br&gt;&lt;/div&gt;&lt;div&gt;2. Likewise ||, if left is true, right side is not going to execute&lt;/div&gt;" style="rounded=0;html=1;labelBorderColor=none;labelBackgroundColor=default;textShadow=1;spacing=0;strokeColor=none;align=left;" vertex="1" parent="1">
          <mxGeometry x="-159" y="571" width="386" height="160" as="geometry" />
        </mxCell>
        <mxCell id="ibb6AX8J0KCUHzm8aaDm-24" style="edgeStyle=orthogonalEdgeStyle;shape=connector;curved=1;rounded=1;orthogonalLoop=1;jettySize=auto;html=1;labelBackgroundColor=default;strokeColor=#333333;align=center;verticalAlign=middle;fontFamily=Helvetica;fontSize=11;fontColor=default;endArrow=oval;endFill=1;strokeWidth=1;endSize=6;exitX=0;exitY=0.5;exitDx=0;exitDy=0;entryX=1;entryY=0.5;entryDx=0;entryDy=0;" edge="1" parent="1" source="ibb6AX8J0KCUHzm8aaDm-23" target="ibb6AX8J0KCUHzm8aaDm-18">
          <mxGeometry relative="1" as="geometry">
            <mxPoint x="-231" y="443" as="targetPoint" />
            <mxPoint x="-81" y="443" as="sourcePoint" />
          </mxGeometry>
        </mxCell>
      </root>
    </mxGraphModel>
  </diagram>
</mxfile>
